<svg id="back" xmlns="http://www.w3.org/2000/svg" xmlns:xlink="http://www.w3.org/1999/xlink" width="1920" height="1080" viewBox="0 0 1920 1080">
  <metadata><?xpacket begin="﻿" id="W5M0MpCehiHzreSzNTczkc9d"?>
<x:xmpmeta xmlns:x="adobe:ns:meta/" x:xmptk="Adobe XMP Core 6.0-c003 79.164527, 2020/10/15-17:48:32        ">
   <rdf:RDF xmlns:rdf="http://www.w3.org/1999/02/22-rdf-syntax-ns#">
      <rdf:Description rdf:about=""
            xmlns:xmp="http://ns.adobe.com/xap/1.0/">
         <xmp:CreatorTool>Adobe Photoshop 22.1 (Windows)</xmp:CreatorTool>
      </rdf:Description>
   </rdf:RDF>
</x:xmpmeta>
                                                                                                    
                                                                                                    
                                                                                                    
                                                                                                    
                                                                                                    
                                                                                                    
                                                                                                    
                                                                                                    
                                                                                                    
                                                                                                    
                                                                                                    
                                                                                                    
                                                                                                    
                                                                                                    
                                                                                                    
                                                                                                    
                                                                                                    
                                                                                                    
                                                                                                    
                                                                                                    
                           
<?xpacket end="w"?></metadata>
<defs>
    <style>
      .cls-1, .cls-9 {
        fill: #6a576b;
      }

      .cls-1, .cls-10, .cls-11, .cls-2, .cls-3, .cls-4, .cls-5, .cls-6, .cls-7, .cls-9 {
        stroke: #370035;
        stroke-linejoin: round;
        stroke-width: 7px;
        fill-rule: evenodd;
      }

      .cls-1 {
        filter: url(#filter);
      }

      .cls-10, .cls-2, .cls-3, .cls-4 {
        fill: #560d5c;
      }

      .cls-2 {
        filter: url(#filter-2);
      }

      .cls-3 {
        filter: url(#filter-3);
      }

      .cls-4 {
        filter: url(#filter-4);
      }

      .cls-11, .cls-5, .cls-6, .cls-7 {
        fill: #76287c;
      }

      .cls-5 {
        filter: url(#filter-5);
      }

      .cls-6 {
        filter: url(#filter-6);
      }

      .cls-7 {
        filter: url(#filter-7);
      }

      .cls-8 {
        filter: url(#filter-8);
      }

      .cls-9 {
        filter: url(#filter-9);
      }

      .cls-10 {
        filter: url(#filter-11);
      }

      .cls-11 {
        filter: url(#filter-12);
      }
    </style>
    <filter id="filter" x="-75" y="379" width="1960" height="323" filterUnits="userSpaceOnUse">
      <feOffset result="offset" dx="-69" in="SourceAlpha"/>
      <feGaussianBlur result="blur" stdDeviation="8.307"/>
      <feFlood result="flood" flood-opacity="0.5"/>
      <feComposite result="composite" operator="in" in2="blur"/>
      <feBlend result="blend" in="SourceGraphic"/>
      <feFlood result="flood-2" flood-color="#654768"/>
      <feComposite result="composite-2" operator="in" in2="SourceAlpha"/>
      <feOffset result="offset-2" dx="-93.199" dy="-185.951"/>
      <feOffset result="offset-3" dx="93.199" dy="185.951" in="composite-2"/>
      <feComposite result="composite-3" operator="xor" in="offset-2"/>
      <feComposite result="composite-4" operator="in" in2="SourceAlpha"/>
      <feGaussianBlur result="blur-2"/>
      <feComponentTransfer result="comp">
        <feFuncA type="linear" slope="0.65"/>
      </feComponentTransfer>
      <feComposite result="composite-5" operator="in" in2="SourceAlpha"/>
      <feBlend result="blend-2" mode="lighten" in2="blend"/>
      <feGaussianBlur result="blur-3" stdDeviation="8.307" in="SourceAlpha"/>
      <feFlood result="flood-3" flood-opacity="0.4"/>
      <feComposite result="composite-6" operator="out" in2="blur-3"/>
      <feOffset result="offset-4" dx="-7"/>
      <feComposite result="composite-7" operator="in" in2="SourceAlpha"/>
      <feBlend result="blend-3" mode="multiply" in2="blend-2"/>
    </filter>
    <filter id="filter-2" x="1071" y="234" width="616" height="612" filterUnits="userSpaceOnUse">
      <feOffset result="offset" dx="-69" in="SourceAlpha"/>
      <feGaussianBlur result="blur" stdDeviation="8.307"/>
      <feFlood result="flood" flood-opacity="0.5"/>
      <feComposite result="composite" operator="in" in2="blur"/>
      <feBlend result="blend" in="SourceGraphic"/>
      <feFlood result="flood-2" flood-color="#654768"/>
      <feComposite result="composite-2" operator="in" in2="SourceAlpha"/>
      <feOffset result="offset-2" dx="-93.199" dy="-185.951"/>
      <feOffset result="offset-3" dx="93.199" dy="185.951" in="composite-2"/>
      <feComposite result="composite-3" operator="xor" in="offset-2"/>
      <feComposite result="composite-4" operator="in" in2="SourceAlpha"/>
      <feGaussianBlur result="blur-2"/>
      <feComponentTransfer result="comp">
        <feFuncA type="linear" slope="0.65"/>
      </feComponentTransfer>
      <feComposite result="composite-5" operator="in" in2="SourceAlpha"/>
      <feBlend result="blend-2" mode="lighten" in2="blend"/>
      <feGaussianBlur result="blur-3" stdDeviation="8.307" in="SourceAlpha"/>
      <feFlood result="flood-3" flood-opacity="0.4"/>
      <feComposite result="composite-6" operator="out" in2="blur-3"/>
      <feOffset result="offset-4" dx="-7"/>
      <feComposite result="composite-7" operator="in" in2="SourceAlpha"/>
      <feBlend result="blend-3" mode="multiply" in2="blend-2"/>
    </filter>
    <filter id="filter-3" x="601" y="234" width="616" height="612" filterUnits="userSpaceOnUse">
      <feOffset result="offset" dx="-69" in="SourceAlpha"/>
      <feGaussianBlur result="blur" stdDeviation="8.307"/>
      <feFlood result="flood" flood-opacity="0.5"/>
      <feComposite result="composite" operator="in" in2="blur"/>
      <feBlend result="blend" in="SourceGraphic"/>
      <feFlood result="flood-2" flood-color="#654768"/>
      <feComposite result="composite-2" operator="in" in2="SourceAlpha"/>
      <feOffset result="offset-2" dx="-93.199" dy="-185.951"/>
      <feOffset result="offset-3" dx="93.199" dy="185.951" in="composite-2"/>
      <feComposite result="composite-3" operator="xor" in="offset-2"/>
      <feComposite result="composite-4" operator="in" in2="SourceAlpha"/>
      <feGaussianBlur result="blur-2"/>
      <feComponentTransfer result="comp">
        <feFuncA type="linear" slope="0.65"/>
      </feComponentTransfer>
      <feComposite result="composite-5" operator="in" in2="SourceAlpha"/>
      <feBlend result="blend-2" mode="lighten" in2="blend"/>
      <feGaussianBlur result="blur-3" stdDeviation="8.307" in="SourceAlpha"/>
      <feFlood result="flood-3" flood-opacity="0.4"/>
      <feComposite result="composite-6" operator="out" in2="blur-3"/>
      <feOffset result="offset-4" dx="-7"/>
      <feComposite result="composite-7" operator="in" in2="SourceAlpha"/>
      <feBlend result="blend-3" mode="multiply" in2="blend-2"/>
    </filter>
    <filter id="filter-4" x="131" y="234" width="616" height="612" filterUnits="userSpaceOnUse">
      <feOffset result="offset" dx="-69" in="SourceAlpha"/>
      <feGaussianBlur result="blur" stdDeviation="8.307"/>
      <feFlood result="flood" flood-opacity="0.5"/>
      <feComposite result="composite" operator="in" in2="blur"/>
      <feBlend result="blend" in="SourceGraphic"/>
      <feFlood result="flood-2" flood-color="#654768"/>
      <feComposite result="composite-2" operator="in" in2="SourceAlpha"/>
      <feOffset result="offset-2" dx="-93.199" dy="-185.951"/>
      <feOffset result="offset-3" dx="93.199" dy="185.951" in="composite-2"/>
      <feComposite result="composite-3" operator="xor" in="offset-2"/>
      <feComposite result="composite-4" operator="in" in2="SourceAlpha"/>
      <feGaussianBlur result="blur-2"/>
      <feComponentTransfer result="comp">
        <feFuncA type="linear" slope="0.65"/>
      </feComponentTransfer>
      <feComposite result="composite-5" operator="in" in2="SourceAlpha"/>
      <feBlend result="blend-2" mode="lighten" in2="blend"/>
      <feGaussianBlur result="blur-3" stdDeviation="8.307" in="SourceAlpha"/>
      <feFlood result="flood-3" flood-opacity="0.4"/>
      <feComposite result="composite-6" operator="out" in2="blur-3"/>
      <feOffset result="offset-4" dx="-7"/>
      <feComposite result="composite-7" operator="in" in2="SourceAlpha"/>
      <feBlend result="blend-3" mode="multiply" in2="blend-2"/>
    </filter>
    <filter id="filter-5" x="100" y="234" width="617" height="612" filterUnits="userSpaceOnUse">
      <feOffset result="offset" dx="-69" in="SourceAlpha"/>
      <feGaussianBlur result="blur" stdDeviation="8.307"/>
      <feFlood result="flood" flood-opacity="0.5"/>
      <feComposite result="composite" operator="in" in2="blur"/>
      <feBlend result="blend" in="SourceGraphic"/>
      <feFlood result="flood-2" flood-color="#654768"/>
      <feComposite result="composite-2" operator="in" in2="SourceAlpha"/>
      <feOffset result="offset-2" dx="-93.199" dy="-185.951"/>
      <feOffset result="offset-3" dx="93.199" dy="185.951" in="composite-2"/>
      <feComposite result="composite-3" operator="xor" in="offset-2"/>
      <feComposite result="composite-4" operator="in" in2="SourceAlpha"/>
      <feGaussianBlur result="blur-2"/>
      <feComponentTransfer result="comp">
        <feFuncA type="linear" slope="0.65"/>
      </feComponentTransfer>
      <feComposite result="composite-5" operator="in" in2="SourceAlpha"/>
      <feBlend result="blend-2" mode="lighten" in2="blend"/>
      <feGaussianBlur result="blur-3" stdDeviation="8.307" in="SourceAlpha"/>
      <feFlood result="flood-3" flood-opacity="0.4"/>
      <feComposite result="composite-6" operator="out" in2="blur-3"/>
      <feOffset result="offset-4" dx="-7"/>
      <feComposite result="composite-7" operator="in" in2="SourceAlpha"/>
      <feBlend result="blend-3" mode="multiply" in2="blend-2"/>
    </filter>
    <filter id="filter-6" x="570" y="234" width="617" height="612" filterUnits="userSpaceOnUse">
      <feOffset result="offset" dx="-69" in="SourceAlpha"/>
      <feGaussianBlur result="blur" stdDeviation="8.307"/>
      <feFlood result="flood" flood-opacity="0.5"/>
      <feComposite result="composite" operator="in" in2="blur"/>
      <feBlend result="blend" in="SourceGraphic"/>
      <feFlood result="flood-2" flood-color="#654768"/>
      <feComposite result="composite-2" operator="in" in2="SourceAlpha"/>
      <feOffset result="offset-2" dx="-93.199" dy="-185.951"/>
      <feOffset result="offset-3" dx="93.199" dy="185.951" in="composite-2"/>
      <feComposite result="composite-3" operator="xor" in="offset-2"/>
      <feComposite result="composite-4" operator="in" in2="SourceAlpha"/>
      <feGaussianBlur result="blur-2"/>
      <feComponentTransfer result="comp">
        <feFuncA type="linear" slope="0.65"/>
      </feComponentTransfer>
      <feComposite result="composite-5" operator="in" in2="SourceAlpha"/>
      <feBlend result="blend-2" mode="lighten" in2="blend"/>
      <feGaussianBlur result="blur-3" stdDeviation="8.307" in="SourceAlpha"/>
      <feFlood result="flood-3" flood-opacity="0.4"/>
      <feComposite result="composite-6" operator="out" in2="blur-3"/>
      <feOffset result="offset-4" dx="-7"/>
      <feComposite result="composite-7" operator="in" in2="SourceAlpha"/>
      <feBlend result="blend-3" mode="multiply" in2="blend-2"/>
    </filter>
    <filter id="filter-7" x="1040" y="234" width="617" height="612" filterUnits="userSpaceOnUse">
      <feOffset result="offset" dx="-69" in="SourceAlpha"/>
      <feGaussianBlur result="blur" stdDeviation="8.307"/>
      <feFlood result="flood" flood-opacity="0.5"/>
      <feComposite result="composite" operator="in" in2="blur"/>
      <feBlend result="blend" in="SourceGraphic"/>
      <feFlood result="flood-2" flood-color="#654768"/>
      <feComposite result="composite-2" operator="in" in2="SourceAlpha"/>
      <feOffset result="offset-2" dx="-93.199" dy="-185.951"/>
      <feOffset result="offset-3" dx="93.199" dy="185.951" in="composite-2"/>
      <feComposite result="composite-3" operator="xor" in="offset-2"/>
      <feComposite result="composite-4" operator="in" in2="SourceAlpha"/>
      <feGaussianBlur result="blur-2"/>
      <feComponentTransfer result="comp">
        <feFuncA type="linear" slope="0.65"/>
      </feComponentTransfer>
      <feComposite result="composite-5" operator="in" in2="SourceAlpha"/>
      <feBlend result="blend-2" mode="lighten" in2="blend"/>
      <feGaussianBlur result="blur-3" stdDeviation="8.307" in="SourceAlpha"/>
      <feFlood result="flood-3" flood-opacity="0.4"/>
      <feComposite result="composite-6" operator="out" in2="blur-3"/>
      <feOffset result="offset-4" dx="-7"/>
      <feComposite result="composite-7" operator="in" in2="SourceAlpha"/>
      <feBlend result="blend-3" mode="multiply" in2="blend-2"/>
    </filter>
    <filter id="filter-8" filterUnits="userSpaceOnUse">
      <feOffset result="offset" dx="40" in="SourceAlpha"/>
      <feGaussianBlur result="blur" stdDeviation="15.811"/>
      <feFlood result="flood" flood-opacity="0.2"/>
      <feComposite result="composite" operator="in" in2="blur"/>
      <feBlend result="blend" in="SourceGraphic"/>
    </filter>
    <filter id="filter-9" x="396" y="45" width="995" height="991" filterUnits="userSpaceOnUse">
      <feOffset result="offset" dx="-69" in="SourceAlpha"/>
      <feGaussianBlur result="blur" stdDeviation="8.307"/>
      <feFlood result="flood" flood-opacity="0.5"/>
      <feComposite result="composite" operator="in" in2="blur"/>
      <feBlend result="blend" in="SourceGraphic"/>
      <feFlood result="flood-2" flood-color="#654768"/>
      <feComposite result="composite-2" operator="in" in2="SourceAlpha"/>
      <feOffset result="offset-2" dx="-93.199" dy="-185.951"/>
      <feOffset result="offset-3" dx="93.199" dy="185.951" in="composite-2"/>
      <feComposite result="composite-3" operator="xor" in="offset-2"/>
      <feComposite result="composite-4" operator="in" in2="SourceAlpha"/>
      <feGaussianBlur result="blur-2"/>
      <feComponentTransfer result="comp">
        <feFuncA type="linear" slope="0.65"/>
      </feComponentTransfer>
      <feComposite result="composite-5" operator="in" in2="SourceAlpha"/>
      <feBlend result="blend-2" mode="lighten" in2="blend"/>
      <feGaussianBlur result="blur-3" stdDeviation="8.307" in="SourceAlpha"/>
      <feFlood result="flood-3" flood-opacity="0.4"/>
      <feComposite result="composite-6" operator="out" in2="blur-3"/>
      <feOffset result="offset-4" dx="-7"/>
      <feComposite result="composite-7" operator="in" in2="SourceAlpha"/>
      <feBlend result="blend-3" mode="multiply" in2="blend-2"/>
    </filter>
    <filter id="filter-11" x="396" y="173" width="866" height="862" filterUnits="userSpaceOnUse">
      <feOffset result="offset" dx="-69" in="SourceAlpha"/>
      <feGaussianBlur result="blur" stdDeviation="8.307"/>
      <feFlood result="flood" flood-opacity="0.5"/>
      <feComposite result="composite" operator="in" in2="blur"/>
      <feBlend result="blend" in="SourceGraphic"/>
      <feFlood result="flood-2" flood-color="#654768"/>
      <feComposite result="composite-2" operator="in" in2="SourceAlpha"/>
      <feOffset result="offset-2" dx="-93.199" dy="-185.951"/>
      <feOffset result="offset-3" dx="93.199" dy="185.951" in="composite-2"/>
      <feComposite result="composite-3" operator="xor" in="offset-2"/>
      <feComposite result="composite-4" operator="in" in2="SourceAlpha"/>
      <feGaussianBlur result="blur-2"/>
      <feComponentTransfer result="comp">
        <feFuncA type="linear" slope="0.65"/>
      </feComponentTransfer>
      <feComposite result="composite-5" operator="in" in2="SourceAlpha"/>
      <feBlend result="blend-2" mode="lighten" in2="blend"/>
      <feGaussianBlur result="blur-3" stdDeviation="8.307" in="SourceAlpha"/>
      <feFlood result="flood-3" flood-opacity="0.4"/>
      <feComposite result="composite-6" operator="out" in2="blur-3"/>
      <feOffset result="offset-4" dx="-7"/>
      <feComposite result="composite-7" operator="in" in2="SourceAlpha"/>
      <feBlend result="blend-3" mode="multiply" in2="blend-2"/>
    </filter>
    <filter id="filter-12" x="526" y="45" width="866" height="862" filterUnits="userSpaceOnUse">
      <feOffset result="offset" dx="-69" in="SourceAlpha"/>
      <feGaussianBlur result="blur" stdDeviation="8.307"/>
      <feFlood result="flood" flood-opacity="0.5"/>
      <feComposite result="composite" operator="in" in2="blur"/>
      <feBlend result="blend" in="SourceGraphic"/>
      <feFlood result="flood-2" flood-color="#654768"/>
      <feComposite result="composite-2" operator="in" in2="SourceAlpha"/>
      <feOffset result="offset-2" dx="-93.199" dy="-185.951"/>
      <feOffset result="offset-3" dx="93.199" dy="185.951" in="composite-2"/>
      <feComposite result="composite-3" operator="xor" in="offset-2"/>
      <feComposite result="composite-4" operator="in" in2="SourceAlpha"/>
      <feGaussianBlur result="blur-2"/>
      <feComponentTransfer result="comp">
        <feFuncA type="linear" slope="0.65"/>
      </feComponentTransfer>
      <feComposite result="composite-5" operator="in" in2="SourceAlpha"/>
      <feBlend result="blend-2" mode="lighten" in2="blend"/>
      <feGaussianBlur result="blur-3" stdDeviation="8.307" in="SourceAlpha"/>
      <feFlood result="flood-3" flood-opacity="0.4"/>
      <feComposite result="composite-6" operator="out" in2="blur-3"/>
      <feOffset result="offset-4" dx="-7"/>
      <feComposite result="composite-7" operator="in" in2="SourceAlpha"/>
      <feBlend result="blend-3" mode="multiply" in2="blend-2"/>
    </filter>
  </defs>
  <g style="fill: #6a576b; filter: url(#filter)">
    <path id="path-11" class="cls-1" d="M1859.62,527.211l-259.26-72.753q-19.26-5.4-45.58-5.4-26.34,0-45.57,5.4t-19.24,12.789v36.376H452.92V467.247q0-7.387-19.242-12.789t-45.574-5.4q-26.346,0-45.573,5.4L83.269,527.211q-19.25,5.4-19.242,12.789t19.242,12.789l259.262,72.753q19.226,5.4,45.573,5.4,26.324,0,45.574-5.4,19.226-5.4,19.242-12.789V576.377H1489.97v36.376q0,7.394,19.24,12.789t45.57,5.4q26.325,0,45.58-5.4l259.26-72.753q19.23-5.4,19.24-12.789t-19.24-12.789h0Z" style="stroke: inherit; filter: none; fill: inherit"/>
  </g>
  <use xlink:href="#path-11" style="stroke: #370035; filter: none; fill: none"/>
  <g style="fill: #560d5c; filter: url(#filter-2)">
    <path id="path-10" class="cls-2" d="M1488.85,528.766L1262.21,309.4a15.64,15.64,0,0,0-22.37,0l-24.31,23.537a14.47,14.47,0,0,0,0,21.654l191.13,185-191.13,185a14.47,14.47,0,0,0,0,21.654l24.31,23.537a15.64,15.64,0,0,0,22.37,0L1488.85,550.42a14.49,14.49,0,0,0,0-21.654h0Zm186.75,0L1448.97,309.4a15.64,15.64,0,0,0-22.37,0l-24.32,23.537a14.49,14.49,0,0,0,0,21.654l191.13,185-191.13,185a14.49,14.49,0,0,0,0,21.654l24.32,23.537a15.64,15.64,0,0,0,22.37,0L1675.6,550.42a14.49,14.49,0,0,0,0-21.654h0Z" style="stroke: inherit; filter: none; fill: inherit"/>
  </g>
  <use xlink:href="#path-10" style="stroke: #370035; filter: none; fill: none"/>
  <g style="fill: #560d5c; filter: url(#filter-3)">
    <path id="path-9" class="cls-3" d="M1018.85,528.766L792.215,309.4a15.643,15.643,0,0,0-22.372,0l-24.316,23.537a14.482,14.482,0,0,0,0,21.654l191.129,185-191.129,185a14.482,14.482,0,0,0,0,21.654l24.316,23.537a15.643,15.643,0,0,0,22.372,0L1018.85,550.42a14.49,14.49,0,0,0,0-21.654h0Zm186.75,0L978.967,309.4a15.642,15.642,0,0,0-22.371,0l-24.317,23.537a14.484,14.484,0,0,0,0,21.654l191.131,185-191.131,185a14.484,14.484,0,0,0,0,21.654L956.6,769.785a15.642,15.642,0,0,0,22.371,0L1205.6,550.42a14.49,14.49,0,0,0,0-21.654h0Z" style="stroke: inherit; filter: none; fill: inherit"/>
  </g>
  <use xlink:href="#path-9" style="stroke: #370035; filter: none; fill: none"/>
  <g style="fill: #560d5c; filter: url(#filter-4)">
    <path id="path-8" class="cls-4" d="M548.847,528.766L322.215,309.4a15.643,15.643,0,0,0-22.372,0l-24.316,23.537a14.482,14.482,0,0,0,0,21.654l191.129,185-191.129,185a14.482,14.482,0,0,0,0,21.654l24.316,23.537a15.643,15.643,0,0,0,22.372,0L548.847,550.42a14.484,14.484,0,0,0,0-21.654h0Zm186.753,0L508.967,309.4a15.642,15.642,0,0,0-22.371,0l-24.317,23.537a14.484,14.484,0,0,0,0,21.654l191.13,185-191.13,185a14.484,14.484,0,0,0,0,21.654L486.6,769.785a15.642,15.642,0,0,0,22.371,0L735.6,550.42a14.484,14.484,0,0,0,0-21.654h0Z" style="stroke: inherit; filter: none; fill: inherit"/>
  </g>
  <use xlink:href="#path-8" style="stroke: #370035; filter: none; fill: none"/>
  <g style="fill: #76287c; filter: url(#filter-5)">
    <path id="path-7" class="cls-5" d="M431.716,528.906L658.579,309.317a15.661,15.661,0,0,1,22.4,0l24.341,23.561a14.5,14.5,0,0,1,0,21.676L513.99,539.744l191.325,185.19a14.5,14.5,0,0,1,0,21.677l-24.341,23.561a15.661,15.661,0,0,1-22.4,0L431.716,550.583a14.5,14.5,0,0,1,0-21.677h0Zm-186.943,0L471.636,309.317a15.66,15.66,0,0,1,22.394,0l24.342,23.561a14.5,14.5,0,0,1,0,21.676L327.047,539.744l191.325,185.19a14.5,14.5,0,0,1,0,21.677L494.03,770.172a15.66,15.66,0,0,1-22.394,0L244.773,550.583a14.5,14.5,0,0,1,0-21.677h0Z" style="stroke: inherit; filter: none; fill: inherit"/>
  </g>
  <use xlink:href="#path-7" style="stroke: #370035; filter: none; fill: none"/>
  <g style="fill: #76287c; filter: url(#filter-6)">
    <path id="path-6" class="cls-6" d="M901.716,528.906L1128.58,309.317a15.655,15.655,0,0,1,22.39,0l24.35,23.561a14.515,14.515,0,0,1,0,21.676L983.99,539.744l191.33,185.19a14.516,14.516,0,0,1,0,21.677l-24.35,23.561a15.655,15.655,0,0,1-22.39,0L901.716,550.583a14.5,14.5,0,0,1,0-21.677h0Zm-186.943,0L941.636,309.317a15.66,15.66,0,0,1,22.394,0l24.342,23.561a14.5,14.5,0,0,1,0,21.676L797.047,539.744l191.325,185.19a14.5,14.5,0,0,1,0,21.677L964.03,770.172a15.66,15.66,0,0,1-22.394,0L714.773,550.583a14.5,14.5,0,0,1,0-21.677h0Z" style="stroke: inherit; filter: none; fill: inherit"/>
  </g>
  <use xlink:href="#path-6" style="stroke: #370035; filter: none; fill: none"/>
  <g style="fill: #76287c; filter: url(#filter-7)">
    <path id="path-5" class="cls-7" d="M1371.72,528.906l226.86-219.589a15.655,15.655,0,0,1,22.39,0l24.35,23.561a14.515,14.515,0,0,1,0,21.676l-191.33,185.19,191.33,185.19a14.516,14.516,0,0,1,0,21.677l-24.35,23.561a15.655,15.655,0,0,1-22.39,0L1371.72,550.583a14.5,14.5,0,0,1,0-21.677h0Zm-186.95,0,226.87-219.589a15.655,15.655,0,0,1,22.39,0l24.34,23.561a14.495,14.495,0,0,1,0,21.676l-191.32,185.19,191.32,185.19a14.5,14.5,0,0,1,0,21.677l-24.34,23.561a15.655,15.655,0,0,1-22.39,0L1184.77,550.583a14.5,14.5,0,0,1,0-21.677h0Z" style="stroke: inherit; filter: none; fill: inherit"/>
  </g>
  <use xlink:href="#path-5" style="stroke: #370035; filter: none; fill: none"/>
  <g id="logo" class="cls-8">
    <g style="fill: #6a576b; filter: url(#filter-9)">
      <path id="path-4" class="cls-9" d="M540.087,131.306l86.87,154.947q6.453,11.5,18.72,23.793t23.761,18.76q11.495,6.47,14.939,3.023l16.983-16.955L1184.7,799.031l-16.98,16.954q-3.45,3.442,3,14.944t18.72,23.793q12.27,12.3,23.76,18.76l154.8,87.13q11.49,6.47,14.94,3.023t-3-14.944l-86.87-154.947q-6.435-11.495-18.72-23.793-12.27-12.289-23.76-18.76-11.475-6.462-14.94-3.023l-16.98,16.954L735.325,280.966l16.983-16.954q3.452-3.447-3-14.944t-18.72-23.793q-12.269-12.29-23.762-18.76l-154.8-87.13q-11.48-6.462-14.939-3.023t3,14.944h0Z" style="stroke: inherit; filter: none; fill: inherit"/>
    </g>
    <use xlink:href="#path-4" style="stroke: #370035; filter: none; fill: none"/>
    <g style="fill: #6a576b; filter: url(#filter-9)">
      <path id="path-3" class="cls-9" d="M1368.71,120.072l-154.95,86.87q-11.505,6.453-23.79,18.719-12.3,12.281-18.76,23.762t-3.02,14.939l16.95,16.982L700.985,764.687,684.031,747.7q-3.444-3.448-14.944,3t-23.793,18.719q-12.3,12.28-18.76,23.762l-87.13,154.8q-6.469,11.493-3.023,14.939t14.943-3l154.948-86.87q11.493-6.44,23.793-18.72t18.76-23.761q6.46-11.479,3.023-14.939l-16.955-16.983L1219.05,315.31,1236,332.293q3.45,3.452,14.95-3t23.79-18.72q12.285-12.268,18.76-23.761l87.13-154.8q6.465-11.481,3.02-14.939t-14.94,3h0Z" style="stroke: inherit; filter: none; fill: inherit"/>
    </g>
    <use xlink:href="#path-3" style="stroke: #370035; filter: none; fill: none"/>
    <g style="fill: #560d5c; filter: url(#filter-11)">
      <path id="path-2" class="cls-10" d="M1033.95,442.023L559.724,449.75a23.522,23.522,0,0,0-23.787,23.787l-0.829,50.883q-0.167,10.185,6.341,16.684t16.684,6.341l399.938-6.516-6.516,399.938q-0.165,10.185,6.341,16.684t16.684,6.341l50.88-.829a23.527,23.527,0,0,0,23.79-23.788l7.73-474.227q0.165-10.161-6.34-16.684-6.51-6.5-16.69-6.341h0ZM1232.53,243.45L758.3,251.176a23.526,23.526,0,0,0-23.788,23.788l-0.829,50.883q-0.165,10.184,6.342,16.683t16.683,6.341l399.934-6.516-6.51,399.939q-0.165,10.183,6.34,16.683t16.68,6.342l50.89-.83a23.525,23.525,0,0,0,23.78-23.787l7.73-474.227q0.165-10.161-6.34-16.684-6.495-6.5-16.68-6.341h0Z" style="stroke: inherit; filter: none; fill: inherit"/>
    </g>
    <use xlink:href="#path-2" style="stroke: #370035; filter: none; fill: none"/>
    <g style="fill: #76287c; filter: url(#filter-12)">
      <path id="path" class="cls-11" d="M863.589,613.693l7.722-473.954a23.509,23.509,0,0,1,23.774-23.774l50.853-.829q10.179-.165,16.674,6.338t6.338,16.674l-6.513,399.708,399.713-6.512q10.17-.167,16.67,6.337t6.34,16.674l-0.83,50.854a23.519,23.519,0,0,1-23.78,23.773L886.6,636.705q-10.155.165-16.674-6.338-6.5-6.495-6.337-16.674h0ZM665.129,812.152L672.852,338.2a23.51,23.51,0,0,1,23.773-23.774l50.854-.828q10.179-.166,16.674,6.337t6.337,16.674l-6.512,399.708L1163.69,729.8q10.17-.166,16.67,6.337t6.34,16.674l-0.83,50.854a23.518,23.518,0,0,1-23.77,23.773l-473.959,7.723q-10.155.165-16.674-6.338-6.5-6.5-6.338-16.674h0Z" style="stroke: inherit; filter: none; fill: inherit"/>
    </g>
    <use xlink:href="#path" style="stroke: #370035; filter: none; fill: none"/>
  </g>
</svg>
