<svg id="Layer_1" data-name="Layer 1" xmlns="http://www.w3.org/2000/svg" viewBox="0 0 573.3 169.1"><title>xda-white-text</title><path d="M83.5,21.7V.3h55V123.6h-55V102.4h32.2V21.7Z" transform="translate(-2.7 0.5)" fill="#7a4e0e"/><polygon points="55 22 55 0.8 0 0.8 0 124.1 32.7 124.1 55 169.1 55 102.6 22.8 102.7 22.8 22 55 22" fill="#ea7100"/><polygon points="292.6 6.5 293.5 5.3 298.2 0 270.9 0 231.9 46.3 192.8 0 165.3 0.2 170.2 5.4 218.2 62.5 170.2 119.7 165.3 125.1 192.8 125.1 231.9 78.8 270.9 125.1 298.2 124.9 293.6 119.7 245.4 62.5 292.6 6.5" fill="#fff"/><path d="M414-.5H312.4V124.6H414a22.7,22.7,0,0,0,16.6-6.8,22.4,22.4,0,0,0,6.9-16.6V23a22.4,22.4,0,0,0-6.9-16.6A22.4,22.4,0,0,0,414-.5ZM333.3,23a2.3,2.3,0,0,1,.7-1.8,2.5,2.5,0,0,1,1.8-.8H414a2.5,2.5,0,0,1,1.8.8,2.3,2.3,0,0,1,.7,1.8v78.2a2.6,2.6,0,0,1-.7,1.8,2.3,2.3,0,0,1-1.8.7H335.8a2.4,2.4,0,0,1-1.8-.7,2.6,2.6,0,0,1-.7-1.8Z" transform="translate(-2.7 0.5)" fill="#fff"/><path d="M569.2,6.4A22.6,22.6,0,0,0,552.6-.5H474.3a22.7,22.7,0,0,0-16.6,6.9A22.7,22.7,0,0,0,450.9,23V124.6h20.9V81.8h83.3v42.8H576V23A22.7,22.7,0,0,0,569.2,6.4ZM471.8,23a2.1,2.1,0,0,1,.8-1.8,2.3,2.3,0,0,1,1.7-.8h78.3a2.3,2.3,0,0,1,1.7.8,2.1,2.1,0,0,1,.8,1.8V60.8H471.8Z" transform="translate(-2.7 0.5)" fill="#fff"/></svg>